<svg width="35" height="34" viewBox="0 0 35 34" fill="none" xmlns="http://www.w3.org/2000/svg">
    <path
        d="M1.50402 24.1316V24.3316H1.70402H7.17996H7.37996V24.1316V7.8328L14.7832 12.4982V28.1171H1.40075C0.820919 28.1171 0.564814 28.8638 1.06464 29.1963L4.99432 31.8102C6.35581 32.7159 7.9649 33.2 9.61178 33.2H25.7963C27.4431 33.2 29.0522 32.7159 30.4137 31.8102L34.3434 29.1963C34.8432 28.8638 34.5871 28.1171 34.0073 28.1171H20.6591V12.4979L28.0281 7.83366V24.1316V24.3316H28.2281H33.704H33.904V24.1316V4.42209C33.904 2.41704 32.2394 0.8 30.1964 0.8C29.4547 0.8 28.7297 1.01733 28.1153 1.42438L17.7293 8.30562H17.6787L7.29276 1.42438C6.67838 1.01733 5.95337 0.8 5.21166 0.8C3.16867 0.8 1.50402 2.41703 1.50402 4.42208V24.1316Z"
        fill="#FF5A5F" stroke="#A01418" stroke-width="0.4" stroke-linecap="round" />
</svg>