<svg width="40" height="42" viewBox="0 0 40 42" fill="none" xmlns="http://www.w3.org/2000/svg">
<path fill-rule="evenodd" clip-rule="evenodd" d="M21.032 1.34015C20.7534 1.07597 20.384 0.928711 20 0.928711C19.616 0.928711 19.2467 1.07597 18.968 1.34015C14.7226 5.37191 9.06826 7.5828 3.21401 7.50014C2.89508 7.496 2.58313 7.59363 2.32346 7.77885C2.06379 7.96407 1.86993 8.22724 1.77001 8.53014C0.925959 11.1025 0.497249 13.7929 0.500013 16.5001C0.500013 28.3841 8.62801 38.3661 19.626 41.1961C19.8713 41.2594 20.1287 41.2594 20.374 41.1961C31.372 38.3661 39.5 28.3841 39.5 16.5001C39.5 13.7201 39.054 11.0401 38.23 8.53014C38.1304 8.22687 37.9367 7.96326 37.677 7.77765C37.4173 7.59205 37.1052 7.49414 36.786 7.49815L36.5 7.50014C30.508 7.50014 25.066 5.16014 21.032 1.34015ZM27.22 17.3721C27.34 17.2122 27.4268 17.03 27.4754 16.836C27.5239 16.6421 27.5332 16.4404 27.5027 16.2429C27.4722 16.0453 27.4025 15.8558 27.2977 15.6855C27.1929 15.5153 27.0552 15.3677 26.8925 15.2514C26.7299 15.1352 26.5456 15.0526 26.3506 15.0086C26.1556 14.9646 25.9538 14.96 25.757 14.9951C25.5602 15.0302 25.3723 15.1042 25.2046 15.213C25.0368 15.3217 24.8925 15.4628 24.78 15.6281L18.308 24.6881L15.06 21.4401C14.7757 21.1752 14.3996 21.0309 14.011 21.0378C13.6224 21.0447 13.2516 21.2021 12.9768 21.4769C12.7019 21.7517 12.5445 22.1225 12.5377 22.5111C12.5308 22.8997 12.6751 23.2758 12.94 23.5601L17.44 28.0601C17.594 28.214 17.7796 28.3325 17.984 28.4074C18.1884 28.4824 18.4066 28.5119 18.6235 28.494C18.8405 28.4761 19.0509 28.4112 19.2403 28.3038C19.4296 28.1965 19.5933 28.0492 19.72 27.8721L27.22 17.3721Z" fill="black"/>
</svg>
