<svg width="48" height="48" viewBox="0 0 48 48" fill="none" xmlns="http://www.w3.org/2000/svg">
<path d="M20.928 17.4921C21.382 17.1321 21.922 16.8701 22.5 16.7041V22.2941C21.9295 22.1379 21.3953 21.8708 20.928 21.5081C20.14 20.8821 19.836 20.1461 19.836 19.5001C19.836 18.8541 20.14 18.1181 20.928 17.4921ZM25.5 31.3241V25.6761C26.194 25.8461 26.828 26.1321 27.342 26.5181C28.196 27.1581 28.5 27.8901 28.5 28.5001C28.5 29.1101 28.196 29.8421 27.342 30.4821C26.7907 30.8831 26.1642 31.1688 25.5 31.3221V31.3241Z" fill="black"/>
<path fill-rule="evenodd" clip-rule="evenodd" d="M24 4.5C13.23 4.5 4.5 13.23 4.5 24C4.5 34.77 13.23 43.5 24 43.5C34.77 43.5 43.5 34.77 43.5 24C43.5 13.23 34.77 4.5 24 4.5ZM25.5 12C25.5 11.6022 25.342 11.2206 25.0607 10.9393C24.7794 10.658 24.3978 10.5 24 10.5C23.6022 10.5 23.2206 10.658 22.9393 10.9393C22.658 11.2206 22.5 11.6022 22.5 12V13.632C21.2457 13.8431 20.0636 14.3626 19.06 15.144C17.636 16.276 16.836 17.844 16.836 19.5C16.836 21.158 17.636 22.724 19.062 23.856C20.066 24.656 21.266 25.15 22.5 25.368V31.324C21.8356 31.17 21.2091 30.8836 20.658 30.482L18.9 29.162C18.7424 29.0438 18.5631 28.9578 18.3723 28.9089C18.1815 28.86 17.9829 28.8492 17.7879 28.8771C17.394 28.9333 17.0387 29.1437 16.8 29.462C16.5613 29.7803 16.4588 30.1803 16.5151 30.5741C16.5713 30.968 16.7817 31.3233 17.1 31.562L18.858 32.882C19.924 33.682 21.196 34.172 22.5 34.382V36C22.5 36.3978 22.658 36.7794 22.9393 37.0607C23.2206 37.342 23.6022 37.5 24 37.5C24.3978 37.5 24.7794 37.342 25.0607 37.0607C25.342 36.7794 25.5 36.3978 25.5 36V34.38C26.8171 34.1821 28.0668 33.6681 29.142 32.882C30.632 31.764 31.5 30.194 31.5 28.5C31.5 26.806 30.632 25.236 29.142 24.118C28.067 23.3311 26.8174 22.8164 25.5 22.618V16.708C26.08 16.872 26.618 17.134 27.072 17.494L27.902 18.154C28.2136 18.4014 28.6108 18.515 29.0061 18.4696C29.4014 18.4242 29.7626 18.2236 30.01 17.912C30.2574 17.6004 30.371 17.2032 30.3256 16.8079C30.2802 16.4126 30.0796 16.0514 29.768 15.804L28.938 15.144C27.9348 14.3637 26.7534 13.8448 25.5 13.634V12V12Z" fill="black"/>
</svg>
