<svg width="21" height="20" viewBox="0 0 21 20" fill="none" xmlns="http://www.w3.org/2000/svg">
<path d="M15.7963 3.46C15.5527 3.46 15.3146 3.53038 15.1121 3.66224C14.9095 3.79409 14.7517 3.98151 14.6585 4.20078C14.5653 4.42005 14.5409 4.66133 14.5884 4.89411C14.6359 5.12689 14.7532 5.34071 14.9254 5.50853C15.0977 5.67635 15.3171 5.79064 15.556 5.83694C15.7949 5.88324 16.0426 5.85948 16.2676 5.76866C16.4926 5.67783 16.685 5.52402 16.8203 5.32668C16.9556 5.12935 17.0279 4.89734 17.0279 4.66C17.0279 4.34174 16.8981 4.03652 16.6672 3.81147C16.4362 3.58643 16.1229 3.46 15.7963 3.46ZM20.5173 5.88C20.4974 5.0503 20.3379 4.2294 20.0452 3.45C19.7843 2.78313 19.3781 2.17928 18.8547 1.68C18.3465 1.16743 17.7253 0.774176 17.0381 0.53C16.2403 0.236161 15.3969 0.07721 14.5442 0.0599999C13.4563 -5.58794e-08 13.1073 0 10.3158 0C7.52419 0 7.17524 -5.58794e-08 6.08735 0.0599999C5.23464 0.07721 4.3912 0.236161 3.5934 0.53C2.90749 0.776649 2.28683 1.16956 1.77682 1.68C1.25076 2.17518 0.847162 2.78044 0.59656 3.45C0.294988 4.22734 0.131854 5.04915 0.114191 5.88C0.0526122 6.94 0.0526123 7.28 0.0526123 10C0.0526123 12.72 0.0526122 13.06 0.114191 14.12C0.131854 14.9508 0.294988 15.7727 0.59656 16.55C0.847162 17.2196 1.25076 17.8248 1.77682 18.32C2.28683 18.8304 2.90749 19.2234 3.5934 19.47C4.3912 19.7638 5.23464 19.9228 6.08735 19.94C7.17524 20 7.52419 20 10.3158 20C13.1073 20 13.4563 20 14.5442 19.94C15.3969 19.9228 16.2403 19.7638 17.0381 19.47C17.7253 19.2258 18.3465 18.8326 18.8547 18.32C19.3804 17.8226 19.787 17.2182 20.0452 16.55C20.3379 15.7706 20.4974 14.9497 20.5173 14.12C20.5173 13.06 20.5789 12.72 20.5789 10C20.5789 7.28 20.5789 6.94 20.5173 5.88ZM18.67 14C18.6625 14.6348 18.5445 15.2637 18.321 15.86C18.1572 16.2952 17.894 16.6884 17.5513 17.01C17.2184 17.3405 16.8157 17.5964 16.371 17.76C15.759 17.9778 15.1136 18.0927 14.4621 18.1C13.4358 18.15 13.056 18.16 10.3568 18.16C7.65761 18.16 7.27788 18.16 6.25156 18.1C5.57511 18.1123 4.90154 18.0109 4.26051 17.8C3.83539 17.6281 3.45111 17.3728 3.13156 17.05C2.79091 16.7287 2.531 16.3352 2.37209 15.9C2.12152 15.2952 1.98254 14.6519 1.96156 14C1.96156 13 1.89998 12.63 1.89998 10C1.89998 7.37 1.89998 7 1.96156 6C1.96616 5.35106 2.08775 4.70795 2.32077 4.1C2.50145 3.67791 2.77878 3.30166 3.13156 3C3.44337 2.65617 3.82872 2.3831 4.26051 2.2C4.8861 1.98004 5.54545 1.86508 6.21051 1.86C7.23682 1.86 7.61656 1.8 10.3158 1.8C13.015 1.8 13.3947 1.8 14.421 1.86C15.0725 1.86728 15.718 1.98225 16.33 2.2C16.7964 2.36865 17.215 2.64285 17.5513 3C17.8876 3.30718 18.1504 3.68273 18.321 4.1C18.5491 4.70893 18.6672 5.35178 18.67 6C18.7213 7 18.7316 7.37 18.7316 10C18.7316 12.63 18.7213 13 18.67 14ZM10.3158 4.87C9.27489 4.87198 8.25797 5.17453 7.39349 5.73942C6.52902 6.30431 5.85579 7.1062 5.45887 8.04375C5.06195 8.98131 4.95915 10.0125 5.16345 11.0069C5.36776 12.0014 5.87001 12.9145 6.60674 13.631C7.34347 14.3474 8.28162 14.835 9.30265 15.0321C10.3237 15.2293 11.3818 15.1271 12.3432 14.7385C13.3047 14.35 14.1264 13.6924 14.7044 12.849C15.2825 12.0056 15.591 11.0142 15.591 10C15.5924 9.3251 15.4568 8.65661 15.192 8.03296C14.9273 7.40931 14.5386 6.84281 14.0483 6.36605C13.5581 5.88929 12.9759 5.51168 12.3354 5.25493C11.6948 4.99818 11.0084 4.86736 10.3158 4.87ZM10.3158 13.33C9.63983 13.33 8.97906 13.1347 8.41704 12.7688C7.85501 12.4029 7.41696 11.8828 7.15829 11.2743C6.89962 10.6659 6.83194 9.99631 6.96381 9.35035C7.09568 8.70439 7.42118 8.11104 7.89914 7.64533C8.3771 7.17963 8.98607 6.86247 9.64902 6.73398C10.312 6.6055 10.9992 6.67144 11.6236 6.92348C12.2481 7.17552 12.7819 7.60234 13.1574 8.14995C13.533 8.69757 13.7334 9.34139 13.7334 10C13.7334 10.4373 13.645 10.8703 13.4733 11.2743C13.3015 11.6784 13.0498 12.0454 12.7324 12.3547C12.415 12.6639 12.0383 12.9092 11.6236 13.0765C11.209 13.2439 10.7646 13.33 10.3158 13.33Z" fill="#A4A4A4"/>
</svg>
