<svg width="42" height="42" viewBox="0 0 42 42" fill="none" xmlns="http://www.w3.org/2000/svg">
<path d="M40.462 1.53836C39.4775 0.55398 38.1422 0.000976563 36.75 0.000976562C35.3578 0.000976562 34.0225 0.55398 33.038 1.53836L30.724 3.85236L38.148 11.2764L40.462 8.96236C41.4464 7.97781 41.9994 6.64259 41.9994 5.25036C41.9994 3.85812 41.4464 2.5229 40.462 1.53836ZM36.026 13.3984L28.602 5.97436L4.302 30.2744C3.0677 31.508 2.16036 33.0299 1.662 34.7024L0.062 40.0724C-0.0152478 40.3315 -0.0210091 40.6067 0.0453257 40.8688C0.111661 41.131 0.247624 41.3703 0.438831 41.5615C0.630037 41.7527 0.869374 41.8887 1.13152 41.955C1.39366 42.0214 1.66886 42.0156 1.928 41.9384L7.298 40.3384C8.97045 39.84 10.4923 38.9327 11.726 37.6984L36.026 13.4004V13.3984Z" fill="black"/>
</svg>
