<svg width="40" height="38" viewBox="0 0 40 38" fill="none" xmlns="http://www.w3.org/2000/svg">
<path fill-rule="evenodd" clip-rule="evenodd" d="M12.5 7.5C12.5 5.51088 13.2902 3.60322 14.6967 2.1967C16.1032 0.790176 18.0109 0 20 0C21.9891 0 23.8968 0.790176 25.3033 2.1967C26.7098 3.60322 27.5 5.51088 27.5 7.5C27.5 9.48912 26.7098 11.3968 25.3033 12.8033C23.8968 14.2098 21.9891 15 20 15C18.0109 15 16.1032 14.2098 14.6967 12.8033C13.2902 11.3968 12.5 9.48912 12.5 7.5ZM27.5 13.5C27.5 11.9087 28.1321 10.3826 29.2574 9.25736C30.3826 8.13214 31.9087 7.5 33.5 7.5C35.0913 7.5 36.6174 8.13214 37.7426 9.25736C38.8679 10.3826 39.5 11.9087 39.5 13.5C39.5 15.0913 38.8679 16.6174 37.7426 17.7426C36.6174 18.8679 35.0913 19.5 33.5 19.5C31.9087 19.5 30.3826 18.8679 29.2574 17.7426C28.1321 16.6174 27.5 15.0913 27.5 13.5ZM0.5 13.5C0.5 11.9087 1.13214 10.3826 2.25736 9.25736C3.38258 8.13214 4.9087 7.5 6.5 7.5C8.0913 7.5 9.61742 8.13214 10.7426 9.25736C11.8679 10.3826 12.5 11.9087 12.5 13.5C12.5 15.0913 11.8679 16.6174 10.7426 17.7426C9.61742 18.8679 8.0913 19.5 6.5 19.5C4.9087 19.5 3.38258 18.8679 2.25736 17.7426C1.13214 16.6174 0.5 15.0913 0.5 13.5ZM8.62 24.234C9.8399 22.322 11.5222 20.7485 13.5112 19.6589C15.5003 18.5693 17.732 17.9987 20 18C21.8996 17.9983 23.7782 18.3978 25.5128 19.1723C27.2473 19.9469 28.7988 21.0791 30.0655 22.4947C31.3322 23.9104 32.2856 25.5776 32.8633 27.3873C33.4411 29.197 33.6301 31.1082 33.418 32.996C33.3921 33.2305 33.3112 33.4556 33.1819 33.653C33.0526 33.8504 32.8786 34.0145 32.674 34.132C28.8171 36.345 24.4467 37.5064 20 37.5C15.39 37.5 11.06 36.276 7.326 34.132C7.12138 34.0145 6.94736 33.8504 6.81809 33.653C6.68881 33.4556 6.60792 33.2305 6.582 32.996C6.24611 29.9292 6.96492 26.8396 8.62 24.236V24.234Z" fill="black"/>
</svg>
