<svg width="40" height="40" viewBox="0 0 40 40" fill="none" xmlns="http://www.w3.org/2000/svg">
<path fill-rule="evenodd" clip-rule="evenodd" d="M17 3.49978C15.2272 3.49978 13.4717 3.84897 11.8338 4.5274C10.1959 5.20584 8.70765 6.20025 7.45406 7.45384C6.20047 8.70743 5.20606 10.1957 4.52763 11.8336C3.84919 13.4714 3.5 15.2269 3.5 16.9998C3.5 18.7726 3.84919 20.5281 4.52763 22.166C5.20606 23.8039 6.20047 25.2921 7.45406 26.5457C8.70765 27.7993 10.1959 28.7937 11.8338 29.4722C13.4717 30.1506 15.2272 30.4998 17 30.4998C20.5804 30.4998 24.0142 29.0775 26.5459 26.5457C29.0777 24.014 30.5 20.5802 30.5 16.9998C30.5 13.4194 29.0777 9.98558 26.5459 7.45384C24.0142 4.9221 20.5804 3.49978 17 3.49978ZM0.5 16.9998C0.50035 14.35 1.13888 11.7392 2.36158 9.38838C3.58428 7.03753 5.35517 5.01574 7.52447 3.49402C9.69377 1.9723 12.1977 0.995427 14.8243 0.646026C17.451 0.296625 20.1232 0.584977 22.6148 1.48669C25.1065 2.3884 27.3444 3.87695 29.1391 5.82642C30.9338 7.77589 32.2326 10.1289 32.9257 12.6865C33.6187 15.2441 33.6856 17.9309 33.1206 20.5198C32.5557 23.1087 31.3755 25.5234 29.68 27.5598L39.06 36.9398C39.2074 37.0771 39.3256 37.2427 39.4076 37.4267C39.4895 37.6107 39.5336 37.8093 39.5372 38.0107C39.5407 38.2121 39.5037 38.4122 39.4282 38.599C39.3528 38.7857 39.2405 38.9554 39.0981 39.0979C38.9556 39.2403 38.786 39.3526 38.5992 39.428C38.4124 39.5035 38.2124 39.5405 38.011 39.537C37.8096 39.5334 37.6109 39.4893 37.4269 39.4073C37.2429 39.3254 37.0773 39.2072 36.94 39.0598L27.56 29.6798C25.1504 31.6868 22.2188 32.9655 19.1086 33.3663C15.9984 33.7671 12.8384 33.2732 9.99882 31.9426C7.1592 30.612 4.75757 28.4997 3.07526 25.8532C1.39296 23.2068 0.499655 20.1357 0.5 16.9998Z" fill="black"/>
</svg>
