<svg width="24" height="22" viewBox="0 0 24 22" fill="none" xmlns="http://www.w3.org/2000/svg">
<path d="M22.4821 1.42778C22.1899 1.19091 21.8373 1.03567 21.4617 0.978584C21.0861 0.921494 20.7017 0.964688 20.3493 1.10357L1.9568 8.33892C1.56347 8.4966 1.22865 8.76711 0.996788 9.11454C0.764926 9.46196 0.646986 9.86988 0.658622 10.2841C0.670258 10.6984 0.810919 11.0994 1.06194 11.434C1.31295 11.7685 1.66246 12.0208 2.06405 12.1573L5.78445 13.418L7.85812 20.0997C7.8863 20.1889 7.9272 20.2739 7.97961 20.352C7.98757 20.364 7.99879 20.373 8.00724 20.3846C8.0678 20.467 8.14099 20.5397 8.22424 20.6004C8.24791 20.618 8.27059 20.6345 8.29589 20.6501C8.39333 20.7131 8.50123 20.7591 8.6148 20.7862L8.62695 20.7872L8.63384 20.7901C8.70212 20.8036 8.77162 20.8105 8.84131 20.8106C8.84801 20.8106 8.85396 20.8074 8.8606 20.8073C8.96576 20.8055 9.07 20.7879 9.16962 20.755C9.19279 20.7473 9.21265 20.7345 9.23514 20.7252C9.30942 20.6952 9.3798 20.6567 9.4448 20.6106C9.49686 20.5679 9.54894 20.5251 9.60103 20.4824L12.3743 17.4991L16.5106 20.6211C16.8748 20.8974 17.323 21.0475 17.7845 21.0479C18.2681 21.0473 18.7367 20.8847 19.1119 20.5874C19.4871 20.2901 19.746 19.8762 19.8452 19.4151L23.1937 3.39849C23.2696 3.03801 23.2435 2.66421 23.1181 2.31708C22.9928 1.96995 22.7729 1.66255 22.4821 1.42778ZM9.24826 13.7364C9.10596 13.8745 9.00868 14.0505 8.96863 14.2422L8.65098 15.7462L7.84629 13.1532L12.0185 11.0362L9.24826 13.7364ZM17.7685 19.0401L12.8805 15.3506C12.676 15.1966 12.4194 15.1234 12.162 15.1455C11.9045 15.1675 11.6651 15.2833 11.4913 15.4697L10.6031 16.4249L10.917 14.9385L18.1864 7.85549C18.3599 7.68665 18.4657 7.46285 18.4844 7.22461C18.5032 6.98638 18.4338 6.74947 18.2887 6.55681C18.1437 6.36414 17.9327 6.22845 17.6938 6.17433C17.455 6.1202 17.2041 6.15121 16.9867 6.26174L6.55393 11.5544L2.73156 10.1915L21.1832 2.99905L17.7685 19.0401Z" fill="#A4A4A4"/>
</svg>
