<svg width="23" height="20" viewBox="0 0 23 20" fill="none" xmlns="http://www.w3.org/2000/svg">
<path d="M22.6236 1.95021C22.6237 1.77357 22.577 1.60007 22.4882 1.44735C22.3995 1.29464 22.2718 1.16817 22.1183 1.08084C21.9648 0.993502 21.7908 0.948416 21.6142 0.95017C21.4376 0.951925 21.2646 1.00046 21.1128 1.09083C20.5275 1.43921 19.8973 1.70601 19.2398 1.88383C18.3008 1.07806 17.1032 0.637129 15.8658 0.641636C14.5084 0.643198 13.2047 1.17223 12.23 2.11702C11.2554 3.06181 10.686 4.3484 10.6422 5.70512C7.96616 5.27838 5.54082 3.88164 3.82863 1.78126C3.72547 1.65609 3.59372 1.55757 3.44449 1.494C3.29527 1.43043 3.13295 1.40368 2.97121 1.41601C2.80957 1.42932 2.65361 1.4818 2.51681 1.56892C2.38 1.65603 2.26648 1.77516 2.18605 1.91601C1.77358 2.63582 1.53668 3.44276 1.4946 4.27131C1.45252 5.09986 1.60644 5.92666 1.94386 6.68456L1.94191 6.68651C1.79026 6.77991 1.66511 6.91066 1.57842 7.06625C1.49173 7.22185 1.44641 7.39708 1.44679 7.57519C1.44496 7.72211 1.45377 7.86898 1.47316 8.01464C1.5753 9.2729 2.13295 10.4507 3.04152 11.3271C2.97989 11.4446 2.94227 11.5731 2.93087 11.7052C2.91946 11.8373 2.93451 11.9704 2.97511 12.0967C3.37123 13.3308 4.21361 14.3727 5.33742 15.0185C4.19566 15.46 2.96284 15.614 1.74757 15.4668C1.52265 15.4386 1.2948 15.4876 1.10142 15.6059C0.90804 15.7242 0.760601 15.9047 0.683289 16.1178C0.605978 16.3309 0.603385 16.5639 0.675935 16.7787C0.748486 16.9935 0.891872 17.1772 1.08257 17.2998C3.17267 18.646 5.60625 19.3617 8.09234 19.3613C10.9116 19.393 13.6623 18.4921 15.9166 16.7988C18.1709 15.1054 19.8023 12.7145 20.5571 9.99801C20.9102 8.81464 21.0905 7.58648 21.0923 6.35157C21.0923 6.28614 21.0923 6.21876 21.0913 6.15138C21.6135 5.58831 22.0179 4.92668 22.281 4.20527C22.5441 3.48387 22.6606 2.7172 22.6236 1.95021V1.95021ZM19.3169 5.16212C19.1517 5.35746 19.0682 5.60891 19.0835 5.86427C19.0933 6.02927 19.0923 6.19527 19.0923 6.35157C19.0903 7.39511 18.9373 8.43287 18.6382 9.43263C18.0217 11.744 16.6474 13.7817 14.7353 15.2192C12.8232 16.6568 10.484 17.4111 8.09234 17.3613C7.23322 17.3616 6.37706 17.2606 5.54156 17.0606C6.60698 16.7172 7.60315 16.1879 8.48394 15.4971C8.64617 15.3693 8.7649 15.1945 8.82383 14.9967C8.88277 14.7988 8.87903 14.5875 8.81312 14.3918C8.74721 14.1962 8.62237 14.0257 8.45572 13.9038C8.28908 13.7819 8.08879 13.7145 7.88234 13.7109C7.05117 13.698 6.25747 13.363 5.66847 12.7764C5.81789 12.7481 5.96633 12.7129 6.11379 12.6709C6.3298 12.6094 6.51884 12.477 6.65045 12.295C6.78207 12.1131 6.84861 11.8921 6.83937 11.6677C6.83012 11.4433 6.74562 11.2285 6.59948 11.058C6.45334 10.8874 6.25405 10.7711 6.03371 10.7275C5.55125 10.6323 5.09726 10.427 4.70703 10.1277C4.3168 9.82845 4.00084 9.44321 3.78371 9.00196C3.96444 9.02662 4.14633 9.04194 4.32863 9.04786C4.54522 9.05113 4.75723 8.98543 4.93401 8.86026C5.11079 8.73509 5.24318 8.55694 5.31203 8.35157C5.37801 8.14433 5.37462 7.92123 5.30236 7.7161C5.23011 7.51096 5.09294 7.33499 4.91164 7.21485C4.47179 6.92182 4.11149 6.52427 3.863 6.0578C3.61451 5.59134 3.4856 5.07052 3.48781 4.54201C3.48781 4.47561 3.48976 4.4092 3.49367 4.34377C5.73494 6.43402 8.642 7.66621 11.7027 7.82326C11.8572 7.82934 12.011 7.80024 12.1526 7.73816C12.2942 7.67607 12.4199 7.58262 12.5201 7.46486C12.6192 7.34596 12.6895 7.20566 12.7252 7.05501C12.761 6.90437 12.7613 6.74748 12.7261 6.5967C12.6689 6.35806 12.6397 6.11357 12.6392 5.86818C12.6401 5.01271 12.9803 4.19254 13.5852 3.58764C14.1901 2.98274 15.0103 2.64251 15.8657 2.64161C16.3059 2.64043 16.7415 2.7305 17.145 2.90615C17.5486 3.0818 17.9114 3.3392 18.2105 3.66212C18.3258 3.7862 18.471 3.87871 18.6322 3.93085C18.7933 3.98299 18.9652 3.99303 19.1313 3.96001C19.5421 3.88006 19.947 3.7724 20.3433 3.63775C20.073 4.19072 19.7276 4.70369 19.3169 5.16212V5.16212Z" fill="#A4A4A4"/>
</svg>
